control3min_grf.mot
version=1
nRows=10
nColumns 19
inDegrees=yes
endheader
time	1_ground_force_vx	1_ground_force_vy	1_ground_force_vz	1_ground_force_px	1_ground_force_py	1_ground_force_pz	1_ground_torque_x	1_ground_torque_y	1_ground_torque_z	2_ground_force_vx	2_ground_force_vy	2_ground_force_vz	2_ground_force_px	2_ground_force_py	2_ground_force_pz	2_ground_torque_x	2_ground_torque_y	2_ground_torque_z
            1.253500	           -0.140540	            9.015616	           -0.511281	           -0.233013	            0.005581	           -0.255695	            0.430580	           -0.434196	           -0.065510	           -0.102545	            2.395264	           -0.460699	           -0.232311	            0.006130	           -0.833667	           -0.449938	           -0.302635	           -0.415592
            1.254000	           -0.141337	            9.016993	           -0.832273	           -0.233013	            0.005581	           -0.255695	            0.425607	           -0.536047	           -0.028338	           -0.011381	            3.131191	           -0.176542	           -0.232311	            0.006130	           -0.833667	           -0.431102	           -0.312154	           -0.377933
            1.254500	           -0.002946	            8.655112	           -0.513169	           -0.233013	            0.005581	           -0.255695	            0.318391	           -0.489938	            0.015599	           -0.430248	            2.392071	            0.102577	           -0.232311	            0.006130	           -0.833667	           -0.431197	           -0.283864	           -0.358982
            1.255000	           -0.369935	            9.376300	           -0.555023	           -0.233013	            0.005581	           -0.255695	            0.394889	           -0.508499	           -0.019132	           -0.054887	            2.210113	           -0.132880	           -0.232311	            0.006130	           -0.833667	           -0.468512	           -0.350303	           -0.321502
            1.255500	           -0.324092	            9.376309	           -0.555136	           -0.233013	            0.005581	           -0.255695	            0.338479	           -0.480598	           -0.054514	           -0.153177	            3.498311	            0.012544	           -0.232311	            0.006130	           -0.833667	           -0.524893	           -0.350304	           -0.378028
            1.256000	           -0.185862	            8.654290	           -0.329290	           -0.233013	            0.005581	           -0.255695	            0.385577	           -0.406731	           -0.010828	           -0.291028	            2.760875	            0.103832	           -0.232311	            0.006130	           -0.833667	           -0.562371	           -0.369547	           -0.321529
            1.256500	           -0.140657	           10.277279	           -0.460015	           -0.241298	            0.005764	           -0.298576	            0.005973	           -0.436411	            0.019534	           -0.202103	            4.051256	           -0.173177	           -0.232311	            0.006130	           -0.833667	           -0.393753	           -0.255168	           -0.415447
            1.257000	           -0.186707	            8.295331	           -0.697683	           -0.233013	            0.005581	           -0.255695	            0.288882	           -0.499278	            0.007826	           -0.338707	            2.946193	           -0.270916	           -0.232311	            0.006130	           -0.833667	           -0.525173	           -0.283799	           -0.472043
            1.257500	           -0.187147	            8.836718	           -0.832932	           -0.233013	            0.005581	           -0.255695	            0.388167	           -0.499102	           -0.030035	           -0.198095	            2.946199	           -0.130192	           -0.232311	            0.006130	           -0.833667	           -0.431119	           -0.312020	           -0.415634
            1.258000	           -0.003548	            8.836360	           -0.741675	           -0.233013	            0.005581	           -0.255695	            0.271642	           -0.489794	           -0.021887	           -0.151163	            2.945698	            0.057501	           -0.232311	            0.006130	           -0.833667	           -0.468546	           -0.340850	           -0.321468
